<svg width="585" height="524" xmlns="http://www.w3.org/2000/svg" xmlns:xlink="http://www.w3.org/1999/xlink" overflow="hidden"><defs><clipPath id="clip0"><rect x="426" y="134" width="585" height="524"/></clipPath><clipPath id="clip1"><rect x="427" y="135" width="583" height="522"/></clipPath><clipPath id="clip2"><rect x="427" y="135" width="584" height="522"/></clipPath><clipPath id="clip3"><rect x="449" y="270" width="389" height="391"/></clipPath><clipPath id="clip4"><rect x="449" y="270" width="389" height="391"/></clipPath><clipPath id="clip5"><rect x="449" y="270" width="389" height="487"/></clipPath><clipPath id="clip6"><rect x="664" y="176" width="313" height="250"/></clipPath><clipPath id="clip7"><rect x="664" y="176" width="313" height="250"/></clipPath><clipPath id="clip8"><rect x="664" y="140" width="313" height="395"/></clipPath></defs><g clip-path="url(#clip0)" transform="translate(-426 -134)"><g clip-path="url(#clip1)"><g clip-path="url(#clip2)"><path d="M0 0 2278.14 0 2278.14 1281.46 0 1281.46Z" fill="#FFFFFF" transform="matrix(1 0 -0 1.00056 -332.101 -105.126)"/><g clip-path="url(#clip3)"><g clip-path="url(#clip4)"><g clip-path="url(#clip5)"><path d="M263.576 164.206 250.418 164.206 250.418 145.993C248.821 146.611 247.07 146.92 245.267 146.92L228.115 146.92 228.115 152.02C228.115 167.06 215.858 179.318 200.817 179.318 190.257 179.318 181.038 173.292 176.505 164.536L176.505 180.246C176.505 196.316 163.422 209.399 147.352 209.399 131.23 209.399 118.147 196.316 118.147 180.246L118.147 146.92 109.803 146.92C108 146.92 106.249 146.611 104.652 145.993L104.652 300.309C104.652 312.672 114.696 322.767 127.058 322.767L227.96 322.767C240.323 322.767 250.418 312.672 250.418 300.309L250.418 272.091 263.576 272.091C274.477 272.091 283.344 263.222 283.344 252.322L283.344 183.974C283.344 173.074 274.477 164.206 263.576 164.206ZM273.043 252.322C273.043 257.544 268.798 261.789 263.576 261.789L250.418 261.789 250.418 174.508 263.576 174.508C268.798 174.508 273.043 178.752 273.043 183.974L273.043 252.322Z" transform="matrix(1 0 -0 1.00071 449.232 270.623)"/><path d="M104.652 131.468C104.652 134.301 106.918 136.619 109.803 136.619L119.126 136.619C124.277 136.619 128.448 140.791 128.448 145.89L128.448 180.246C128.448 190.65 136.896 199.097 147.352 199.097 157.756 199.097 166.204 190.65 166.204 180.246L166.204 145.375C166.204 140.534 170.17 136.619 175.012 136.619 179.801 136.619 183.768 140.534 183.768 145.375L183.768 152.02C183.768 161.394 191.391 169.017 200.817 169.017 210.191 169.017 217.814 161.394 217.814 152.02L217.814 143.521C217.814 139.709 220.905 136.619 224.716 136.619L245.267 136.619C248.101 136.619 250.418 134.301 250.418 131.468 250.418 113.543 235.738 92.7346 216.783 92.7346 212.611 92.7346 208.543 93.507 204.73 95.0008 203.392 87.7381 199.889 81.0422 194.481 75.7371 187.63 68.9383 178.514 65.2293 168.882 65.2293L168.418 65.2293C159.61 65.3327 150.7 69.4015 144.004 76.5095 134.269 86.708 132.106 95.6189 132.466 102.933 117.066 103.294 104.652 115.964 104.652 131.468Z" transform="matrix(1 0 -0 1.00071 449.232 270.623)"/><text font-family="Arial,Arial_MSFontService,sans-serif" font-weight="700" font-size="5" transform="matrix(6.4666 0 0 6.4712 449.232 757)">Created by Vectorstall<tspan x="0" y="4.94499">from the Noun Project</tspan></text></g></g></g><g clip-path="url(#clip6)"><g clip-path="url(#clip7)"><g clip-path="url(#clip8)"><path d="M249.628 201.358 165.101 54.9019 162.181 49.8527 154.273 54.4151 158.683 62.0193 34.3097 200.414 31.3898 195.365 23.4816 199.929 27.8615 207.532 48.8185 243.818 53.2289 251.454 61.1372 246.89 58.2173 241.841 88.6946 235.423C91.2495 251.758 105.393 264.259 122.426 264.259L125.316 264.259C144.113 264.259 159.443 248.959 159.443 230.132L159.443 220.459 240.23 203.365 244.641 210.999 252.548 206.437 249.628 201.358ZM150.318 230.132C150.318 243.909 139.095 255.134 125.316 255.134L122.426 255.134C109.773 255.134 99.2796 245.705 97.637 233.538L97.637 233.538 150.318 222.406 150.318 230.132ZM235.423 195.031 153.908 212.277 106.336 222.345 103.234 223.014 91.9187 225.417 88.2991 226.177 53.4419 233.569 53.4419 233.569 39.1156 208.749 163.489 70.4142 163.489 70.3838 235.423 195.031 235.423 195.031Z" transform="matrix(1 0 -0 1.00504 664.588 142.058)"/><path d="M138.813 47.8223 143.946 47.8223 143.946 67.8239 138.813 67.8239Z" transform="matrix(0.889742 1.54689 -1.54259 0.888262 879.132 -25.0163)"/><path d="M122.431 26.2693 127.565 26.2693 127.565 46.2751 122.431 46.2751Z" transform="matrix(1.47199 1.00103 -1.00213 1.47526 738.885 28.055)"/><path d="M265.357 129.424 274.482 129.424 274.482 164.981 265.357 164.981Z" transform="matrix(0.0718771 1.00241 -0.997439 0.0715206 1061.92 8.81364)"/><text font-family="Arial,Arial_MSFontService,sans-serif" font-weight="700" font-size="5" transform="matrix(0.304164 0 0 0.305698 664.588 459)">Created by IconPai<tspan x="0" y="6.54241">from the Noun Project</tspan></text></g></g></g><path d="M761.755 242.053 1338.41 242.053 1338.41 758.195 761.755 758.195ZM770.298 749.652 1329.87 749.652 1329.87 250.596 770.298 250.596ZM773.145 253.444 1327.02 253.444 1327.02 746.804 773.145 746.804ZM775.993 743.957 1324.17 743.957 1324.17 256.291 775.993 256.291Z" transform="matrix(1 0 -0 1.00056 -332.101 -105.126)"/></g></g></g></svg>